<?xml version="1.0" standalone="no"?>
<svg version="1.0" xmlns="http://www.w3.org/2000/svg"
 width="300.000000pt" height="300.000000pt" viewBox="0 0 300.000000 300.000000"
 preserveAspectRatio="xMidYMid meet">
<g transform="translate(0.000000,300.000000) scale(0.100000,-0.100000)"
fill="#000000" stroke="none">
<path d="M1033 2719 c-37 -19 -45 -57 -41 -198 4 -171 -3 -165 172 -169 130
-3 134 -3 162 21 l29 25 0 141 c0 188 3 185 -173 188 -77 2 -136 -2 -149 -8z
m85 -49 c-21 -29 -23 -43 -23 -140 0 -60 3 -112 8 -116 16 -16 121 -16 142 0
19 14 14 15 -57 16 l-78 0 0 98 c0 114 12 142 62 142 48 0 68 -24 69 -84 0
-28 4 -73 9 -101 l7 -50 3 40 c5 87 1 142 -14 184 l-16 44 37 -6 c20 -4 41
-11 46 -16 9 -9 11 -172 3 -231 -9 -65 -25 -72 -160 -68 -128 3 -129 5 -130
156 -1 140 7 156 74 160 l41 3 -23 -31z"/>
<path d="M1148 2649 c-35 -20 -21 -39 27 -39 49 0 62 20 26 40 -24 12 -31 12
-53 -1z"/>
<path d="M295 2685 c-25 -24 -25 -27 -25 -190 0 -163 0 -166 25 -190 23 -24
28 -25 179 -25 166 0 197 7 215 47 7 14 11 87 11 179 0 151 -1 156 -25 179
-24 25 -27 25 -190 25 -163 0 -166 0 -190 -25z m172 3 c-15 -11 -13 -13 17
-14 27 0 32 2 20 10 -11 8 2 10 48 8 35 -1 73 -5 84 -7 34 -8 47 -52 37 -131
-5 -38 -8 -99 -7 -135 2 -96 -20 -117 -116 -110 l-52 3 31 19 c17 10 31 26 31
34 0 8 5 15 10 15 7 0 10 30 8 82 l-3 83 -40 22 c-49 26 -71 27 -110 4 -29
-17 -30 -20 -33 -103 -3 -79 -1 -88 23 -116 30 -36 21 -46 -39 -44 -71 3 -76
16 -77 183 -2 171 3 185 64 193 23 3 53 7 67 10 52 7 55 7 37 -6z m91 -217 c3
-65 0 -77 -19 -97 -28 -30 -81 -32 -109 -4 -21 21 -26 77 -14 150 l6 35 66 -5
67 -5 3 -74z"/>
<path d="M1893 2703 c26 -2 67 -2 90 0 23 2 2 3 -48 3 -49 0 -68 -1 -42 -3z"/>
<path d="M2551 2651 c-50 -27 -81 -84 -81 -152 0 -93 58 -158 149 -167 63 -6
101 9 145 59 76 83 49 211 -55 265 -38 19 -117 17 -158 -5z m146 -21 c131 -59
102 -254 -40 -277 -48 -7 -120 28 -147 71 -28 46 -26 147 3 129 6 -4 7 -1 3 6
-16 25 68 91 114 91 14 0 44 -9 67 -20z"/>
<path d="M2747 2493 c-4 -24 -12 -43 -17 -43 -6 0 -10 -6 -10 -13 0 -7 -9 -18
-21 -25 -12 -8 -19 -10 -16 -5 3 5 -11 7 -31 4 -34 -4 -35 -5 -12 -12 21 -6
18 -7 -17 -8 -31 -1 -50 6 -75 25 l-33 26 32 -30 c43 -41 91 -50 139 -26 53
27 76 62 72 110 l-3 39 -8 -42z"/>
<path d="M1761 2606 c-8 -9 -11 -43 -9 -93 l3 -78 118 -3 c73 -2 115 -6 112
-12 -9 -15 2 -12 30 6 23 15 25 23 25 93 0 47 -5 82 -12 89 -18 18 -252 16
-267 -2z m247 -86 c-2 -56 -10 -70 -40 -70 -22 0 -24 28 -3 36 10 4 14 20 13
51 0 29 -4 40 -9 32 -7 -11 -9 -11 -9 2 0 24 10 29 31 16 15 -9 18 -22 17 -67z
m-183 53 c-18 -41 -16 -69 5 -93 l22 -25 -22 -3 c-34 -6 -50 16 -50 69 0 35 5
51 18 58 26 15 35 13 27 -6z m109 -12 c21 -23 14 -56 -15 -72 -46 -24 -93 24
-64 67 19 29 55 31 79 5z"/>
<path d="M2842 2402 c-4 -104 -62 -128 -289 -120 -111 3 -132 13 -159 73 -13
29 -14 29 -11 4 4 -42 34 -77 74 -88 54 -15 301 -9 335 8 38 19 60 71 55 129
l-3 47 -2 -53z"/>
<path d="M1079 2264 c-49 -11 -63 -19 -112 -63 -58 -53 -58 -50 -58 -924 0
-539 4 -810 11 -837 15 -54 64 -108 124 -136 48 -22 60 -23 330 -24 155 0 358
-1 451 -2 194 -1 230 8 287 70 72 78 68 31 65 930 -2 807 -2 807 -24 854 -26
58 -63 93 -123 121 -43 21 -60 21 -473 22 -276 0 -446 -4 -478 -11z m921 -14
c47 -13 106 -63 133 -113 l22 -42 3 -784 c2 -556 -1 -800 -9 -839 -8 -41 -21
-66 -51 -98 -67 -72 -79 -74 -544 -74 -473 0 -488 2 -555 69 -31 30 -51 61
-58 88 -8 30 -11 270 -9 845 l3 803 22 42 c23 43 69 84 113 102 33 13 883 14
930 1z"/>
<path d="M1065 2214 c-45 -23 -66 -45 -86 -89 -18 -38 -19 -85 -19 -843 0
-700 2 -807 15 -839 20 -48 41 -70 90 -97 39 -21 49 -21 480 -21 431 0 441 0
480 21 49 27 70 49 90 97 13 32 15 138 15 824 0 511 -4 801 -10 825 -14 48
-53 94 -101 118 -36 19 -61 20 -481 20 -382 0 -447 -2 -473 -16z m932 -35 c23
-11 51 -35 62 -52 19 -31 20 -58 22 -851 l3 -819 -32 -36 c-60 -67 -52 -66
-512 -66 -401 0 -416 1 -455 21 -22 11 -50 36 -63 54 -22 33 -22 39 -20 259
l3 226 105 -5 c176 -8 721 -3 790 8 48 7 -60 10 -415 11 l-480 1 1 586 c1 565
2 586 21 612 48 64 58 67 254 70 112 2 179 0 179 -7 0 -5 3 -16 6 -25 5 -14
-4 -16 -67 -16 -89 0 -117 7 -122 29 -4 12 -5 11 -6 -4 -2 -43 11 -45 270 -45
216 0 248 2 253 16 9 24 7 28 -9 14 -14 -11 -152 -16 -163 -5 -3 3 -1 15 5 27
10 23 13 23 169 20 135 -3 165 -6 201 -23z m-387 1 c0 -6 -30 -10 -70 -10 -40
0 -70 4 -70 10 0 6 30 10 70 10 40 0 70 -4 70 -10z"/>
<path d="M1194 1915 c0 -71 1 -99 3 -62 2 37 2 96 0 130 -2 34 -3 4 -3 -68z"/>
<path d="M1520 1990 c0 -11 -6 -20 -13 -20 -8 0 -22 -9 -32 -20 -18 -20 -17
-20 55 -20 72 0 73 0 55 20 -10 11 -26 20 -36 20 -12 0 -16 6 -12 20 3 11 0
20 -6 20 -6 0 -11 -9 -11 -20z"/>
<path d="M1860 1775 c0 -126 2 -226 5 -224 7 7 7 440 1 447 -3 3 -6 -97 -6
-223z"/>
<path d="M1444 1847 c-23 -20 -26 -28 -19 -53 l8 -29 13 32 c16 37 40 53 83
53 32 0 110 -35 93 -42 -5 -1 -6 -12 -2 -23 7 -18 8 -17 15 9 14 53 -15 73
-112 75 -41 1 -58 -4 -79 -22z"/>
<path d="M1377 1603 c-11 -11 -8 -43 4 -43 7 0 17 7 23 15 6 9 26 16 43 18 18
1 33 5 33 10 0 9 -94 10 -103 0z"/>
<path d="M1556 1602 c-3 -5 18 -12 47 -15 28 -4 53 -11 55 -17 7 -21 33 -10
30 13 -3 20 -9 22 -65 25 -34 2 -64 -1 -67 -6z"/>
<path d="M1477 1553 c18 -2 50 -2 70 0 21 2 7 4 -32 4 -38 0 -55 -2 -38 -4z"/>
<path d="M1354 1531 c-30 -14 -44 -28 -53 -51 -14 -41 -15 -250 -1 -250 14 0
20 34 22 142 3 97 3 97 38 128 19 18 44 36 55 40 20 9 20 9 0 9 -11 0 -39 -8
-61 -18z"/>
<path d="M1692 1521 c56 -36 67 -64 68 -185 0 -48 5 -96 10 -105 6 -11 9 25
10 111 0 121 -1 128 -25 157 -14 16 -36 33 -48 36 -56 16 -59 14 -15 -14z"/>
<path d="M1188 1214 c1 -130 5 -234 8 -232 3 3 8 110 11 237 5 193 3 231 -8
231 -12 0 -14 -40 -11 -236z"/>
<path d="M1860 1198 c0 -138 2 -249 5 -246 3 2 5 113 6 246 2 237 2 241 23
245 16 3 15 5 -6 6 l-28 1 0 -252z"/>
<path d="M1485 1395 c-62 -29 -86 -66 -84 -128 1 -29 2 -28 10 11 19 99 101
142 186 99 33 -17 63 -77 63 -124 0 -14 3 -24 6 -20 4 3 6 25 6 47 -1 59 -38
104 -96 119 -55 13 -54 14 -91 -4z"/>
<path d="M1273 1190 c3 -13 0 -20 -9 -20 -8 0 -14 -9 -14 -20 0 -20 7 -20 285
-20 241 0 285 2 285 14 0 8 -4 18 -10 21 -5 3 -10 15 -10 26 0 18 -9 19 -266
19 -261 0 -266 0 -261 -20z m385 -27 c-65 -2 -171 -2 -235 0 -65 1 -12 3 117
3 129 0 182 -2 118 -3z"/>
<path d="M1598 869 c-15 -4 -40 -17 -57 -28 l-29 -21 -29 24 c-21 17 -38 23
-68 21 -63 -4 -64 -4 -86 -26 -18 -18 -25 -20 -41 -10 -18 11 -18 10 -7 -10 6
-13 9 -46 7 -80 -2 -33 -1 -54 3 -48 5 8 18 3 41 -15 46 -34 100 -35 149 -1
20 13 40 21 44 17 5 -4 5 1 2 11 -8 22 -2 22 23 -3 11 -11 27 -20 36 -20 12 0
10 6 -10 21 -37 29 -37 89 1 118 31 25 58 20 91 -15 27 -31 28 -25 2 25 -22
44 -34 51 -72 40z m-133 -44 c18 -1 20 -9 20 -70 0 -63 -2 -68 -25 -77 l-25
-9 23 21 c12 11 22 28 21 38 0 14 -2 14 -6 2 -14 -40 -71 -52 -112 -24 -19 14
-22 23 -19 64 1 27 0 46 -4 43 -5 -2 -8 1 -8 7 0 7 6 10 14 7 8 -3 27 -2 43 3
15 4 35 6 43 3 8 -3 24 -6 35 -8z m-111 -137 c6 -4 22 -8 36 -9 21 -1 22 -2 4
-6 -35 -7 -74 14 -74 39 1 22 1 22 12 3 6 -11 16 -23 22 -27z"/>
<path d="M1763 854 c-18 -9 -33 -21 -33 -26 0 -6 -8 -8 -18 -6 -16 4 -18 -3
-17 -63 0 -42 4 -68 10 -65 6 1 23 -8 38 -20 34 -29 103 -33 133 -8 16 13 16
15 2 10 -10 -3 -18 -1 -18 4 0 6 4 10 10 10 5 0 16 12 24 28 l15 27 1 -25 1
-25 10 25 c13 33 2 93 -15 87 -9 -4 -12 0 -10 11 3 11 -6 23 -26 35 -39 21
-65 21 -107 1z m110 -46 c24 -28 21 -65 -8 -93 -47 -48 -115 -19 -115 49 0 68
79 96 123 44z m-80 -130 c19 -5 18 -6 -8 -7 -32 -1 -55 14 -55 36 0 9 6 8 20
-5 11 -9 30 -20 43 -24z"/>
<path d="M1549 667 c16 -16 77 -19 110 -5 33 13 31 13 -42 13 -42 0 -72 -4
-68 -8z"/>
<path d="M1845 615 c-5 -1 -29 -8 -53 -15 -32 -10 -45 -11 -54 -2 -19 19 -73
14 -98 -8 -27 -24 -30 -24 -44 -6 -18 24 -78 28 -116 7 -29 -15 -37 -16 -59
-4 -28 14 -91 18 -91 6 0 -5 17 -16 37 -26 30 -15 34 -16 24 -3 -12 14 -10 16
13 16 25 0 26 -2 20 -42 -4 -24 -7 -44 -8 -44 -1 -1 -22 -5 -48 -8 l-48 -7 0
52 c0 40 -3 50 -11 42 -9 -9 -19 -6 -40 9 -21 16 -34 19 -56 12 -28 -8 -27 -8
12 -13 37 -6 40 -8 43 -42 3 -33 1 -36 -35 -46 -30 -8 -33 -11 -13 -11 14 -1
36 5 49 12 21 11 26 10 47 -11 27 -27 79 -31 105 -7 16 15 20 15 41 0 12 -9
34 -16 49 -16 33 0 89 19 89 31 0 5 7 9 15 9 8 0 16 9 16 20 1 11 3 25 4 30 1
6 3 15 4 20 0 6 21 10 45 10 41 0 44 -2 48 -29 6 -42 -8 -64 -35 -55 -12 4
-25 11 -28 16 -4 6 -6 -2 -6 -16 0 -14 5 -27 11 -27 26 -3 52 4 66 16 9 9 21
10 30 5 13 -7 15 -2 12 31 -5 53 9 67 66 65 l47 -1 5 -45 c4 -33 7 -40 13 -27
24 61 -14 119 -68 102z m-257 -77 c3 -47 3 -48 -26 -48 -16 0 -44 -3 -61 -6
l-31 -6 0 49 c0 27 3 52 6 55 3 3 29 5 57 4 l52 -1 3 -47z"/>
<path d="M2415 1975 c-25 -24 -25 -24 -25 -234 0 -273 -19 -251 224 -251 195
1 206 3 226 54 11 30 14 234 3 222 -8 -8 -11 -30 -13 -124 -2 -61 -7 -79 -25
-100 -23 -27 -24 -27 -177 -30 -182 -3 -198 2 -214 68 -16 60 -17 341 -3 373
6 14 21 30 33 35 11 6 15 11 8 11 -7 1 -24 -10 -37 -24z"/>
<path d="M417 1963 c-11 -10 -8 -101 3 -108 6 -4 10 17 10 54 0 62 -1 66 -13
54z"/>
<path d="M460 1916 c0 -30 5 -58 10 -61 6 -4 10 15 10 49 0 30 -4 58 -10 61
-6 4 -10 -15 -10 -49z"/>
<path d="M510 1908 c0 -44 3 -59 10 -48 13 20 13 97 0 105 -6 4 -10 -17 -10
-57z"/>
<path d="M552 1903 l3 -68 -88 2 -87 2 0 -99 c0 -54 -3 -105 -6 -114 -5 -14 9
-16 115 -16 l121 0 0 116 c0 111 -1 115 -20 109 -19 -6 -20 -2 -20 64 0 45 -4
71 -11 71 -7 0 -10 -23 -7 -67z m26 -95 c17 -17 15 -28 -4 -21 -15 6 -15 4 0
-20 12 -17 16 -42 15 -81 -2 -55 -3 -56 -37 -62 -32 -6 -141 2 -150 11 -10 10
-2 157 9 171 15 18 149 20 167 2z"/>
<path d="M471 1754 c-21 -26 -17 -53 10 -69 21 -14 67 15 71 45 2 16 1 27 -3
25 -4 -3 -12 2 -19 10 -18 22 -36 18 -59 -11z m54 -29 c0 -22 -31 -33 -47 -17
-17 17 -1 44 24 40 15 -2 23 -10 23 -23z"/>
<path d="M682 1787 c-1 -94 -5 -182 -7 -194 -8 -37 -50 -50 -163 -52 -139 -3
-189 6 -208 34 -10 15 -17 60 -21 127 -3 57 -7 105 -9 107 -9 9 -3 -232 6
-249 16 -30 67 -40 205 -40 138 0 189 10 205 40 12 22 14 400 3 400 -5 0 -9
-78 -11 -173z"/>
<path d="M2503 1897 c-3 -5 0 -14 6 -20 12 -12 15 -116 5 -154 -4 -13 -13 -23
-20 -23 -10 0 -14 -13 -14 -40 l0 -40 45 0 45 0 0 40 c0 28 -4 40 -15 40 -18
0 -27 48 -23 120 l3 55 78 2 77 1 0 -89 c0 -89 0 -89 -26 -89 -24 0 -25 -3
-22 -39 3 -42 2 -41 58 -41 40 0 40 0 40 40 0 28 -4 40 -14 40 -22 0 -27 161
-6 177 8 6 13 14 10 16 -9 9 -222 12 -227 4z m42 -232 c0 -11 -8 -21 -17 -23
-14 -3 -18 3 -18 23 0 20 4 26 18 23 9 -2 17 -12 17 -23z m173 1 c5 -24 -10
-38 -31 -30 -14 5 -16 16 -8 52 3 12 36 -7 39 -22z"/>
<path d="M340 1303 c0 -5 33 -7 72 -5 132 5 145 9 36 10 -60 1 -108 -1 -108
-5z"/>
<path d="M624 1303 c23 -6 38 -20 53 -48 11 -19 8 -251 -3 -302 -9 -45 -45
-56 -182 -57 -70 0 -139 3 -153 7 -38 10 -48 46 -50 172 -2 168 -1 183 21 205
11 11 16 20 12 20 -5 0 -17 -9 -28 -21 -17 -19 -19 -38 -19 -191 0 -221 -13
-208 212 -208 161 0 164 0 188 25 25 24 25 27 25 194 l0 170 -26 20 c-15 12
-36 20 -48 20 -19 -1 -19 -2 -2 -6z"/>
<path d="M2410 1241 c-5 -11 -9 -48 -8 -83 l1 -63 7 65 c3 36 10 73 14 83 11
23 -1 22 -14 -2z"/>
<path d="M440 1220 c0 -29 2 -30 45 -30 43 0 45 1 45 30 0 29 -2 30 -45 30
-43 0 -45 -1 -45 -30z"/>
<path d="M2625 1213 c-30 -8 -163 -101 -175 -122 -26 -50 0 -95 72 -126 76
-31 148 -13 220 55 30 30 38 44 38 73 0 70 -86 136 -155 120z m100 -54 c45
-40 45 -68 -1 -109 -66 -58 -73 -58 -153 -5 -39 27 -71 53 -71 59 0 6 26 28
58 48 74 49 117 51 167 7z m-166 -136 l76 -38 -37 -3 c-37 -3 -97 26 -127 62
-22 26 4 20 88 -21z"/>
<path d="M382 1160 c-19 -18 -22 -31 -22 -106 0 -77 2 -87 25 -109 21 -22 33
-25 93 -25 55 0 75 4 96 21 25 20 26 24 25 112 l-2 92 -7 -89 c-9 -113 -23
-128 -118 -123 -85 4 -98 18 -95 104 2 91 9 110 41 127 23 13 24 15 6 16 -11
0 -30 -9 -42 -20z"/>
<path d="M486 1145 c15 -19 30 -50 34 -68 8 -31 8 -31 9 11 1 33 -5 49 -24 67
-36 37 -50 30 -19 -10z"/>
<path d="M417 1093 c-10 -9 -8 -41 2 -47 5 -4 7 3 4 14 -3 13 1 22 12 26 19 8
37 -13 28 -31 -3 -5 0 -5 7 2 11 10 11 15 0 28 -13 15 -42 20 -53 8z"/>
<path d="M2830 1016 c-5 -71 -8 -81 -34 -103 -29 -24 -31 -25 -182 -21 -178 4
-189 9 -203 94 l-9 49 -1 -56 c-1 -42 4 -63 18 -80 19 -23 24 -24 194 -27 170
-3 175 -3 201 20 26 22 27 26 24 113 l-3 90 -5 -79z"/>
<path d="M295 615 c-25 -24 -25 -27 -25 -200 0 -173 0 -176 25 -200 24 -25 27
-25 190 -25 226 0 218 -9 213 249 -4 213 9 201 -215 201 -161 0 -164 0 -188
-25z m352 -13 c24 -19 25 -29 24 -213 -1 -177 3 -173 -178 -176 -150 -2 -177
4 -190 46 -5 14 -9 91 -8 169 l0 144 28 24 c27 23 35 24 165 24 115 0 141 -3
159 -18z"/>
<path d="M428 504 c-12 -6 -25 -20 -29 -30 -12 -30 -10 -135 3 -171 l12 -33
72 0 72 0 14 35 c20 50 8 173 -18 189 -30 17 -101 23 -126 10z m126 -36 c10
-40 6 -144 -6 -156 -7 -7 -36 -12 -65 -12 -66 0 -76 15 -68 103 9 90 7 87 74
87 52 0 59 -2 65 -22z"/>
<path d="M424 251 c6 -9 112 -8 123 2 3 4 -24 7 -61 7 -37 0 -65 -4 -62 -9z"/>
<path d="M2390 405 c0 -237 -10 -228 247 -223 208 4 203 0 203 146 0 58 -2
103 -5 101 -2 -3 -7 -42 -10 -89 -8 -134 -17 -140 -217 -140 -138 0 -183 13
-195 57 -4 15 -8 94 -8 175 0 82 -3 148 -7 148 -5 0 -8 -79 -8 -175z"/>
<path d="M2564 551 c-43 -26 -80 -77 -94 -129 -9 -37 -8 -53 6 -100 13 -41 15
-57 6 -60 -7 -2 -9 -8 -6 -13 4 -6 11 -6 19 1 8 7 21 7 39 0 35 -13 33 -17 -6
-13 l-33 3 30 -10 c38 -13 169 -3 215 17 33 14 34 15 16 29 -27 19 -35 18 -29
-5 5 -18 -19 -31 -59 -31 -16 0 -16 2 2 20 11 11 24 20 29 20 15 0 61 116 61
155 0 108 -106 171 -196 116z m143 -36 c34 -34 35 -38 31 -89 -11 -127 -138
-200 -220 -127 -30 26 -33 35 -33 83 0 61 25 108 79 146 48 35 100 30 143 -13z"/>
<path d="M2578 494 c-55 -29 -76 -116 -38 -154 43 -43 128 -12 150 55 14 43 7
68 -27 95 -30 24 -48 25 -85 4z m73 -24 c29 -16 26 -73 -6 -98 -26 -20 -63
-19 -77 2 -15 22 -8 66 14 86 24 22 40 25 69 10z"/>
</g>
</svg>
